:SAMPLES-PER-SECOND 30
:FULLY-SPECIFIED
:DEGREES
284
root  -0.942246 38.1432 12.5654 -174.684 10.6175 179.162
RightUpLeg  -21.9171 -15.9692 -11.6705
RightLeg  30.3657 -4.47758 -3.07411
RightFoot  -1.79909 -1.80953 21.2293
RightToes  -1.39699e-009 0 -3.6325e-017
Spine  24.0148 2.64535 -1.48456
Spine1  10.3185 3.92747 -5.3562
HEad  -21.6254 4.91875 -5.27633
LeftShoulder1  1.07306 -2.23926 -11.513
LeftArm  9.55861 1.31409 -51.754
LeftForeArm  95.6551 -78.9237 -106.958
LeftHand  -1.3208 -2.33343 19.9242
RightShoulder  0.902403 1.34428 11.5226
RightArm  -5.18103 3.69668 49.7587
RightForeArm  101.064 79.1451 107.219
RightHand  -1.20306 3.94613 -15.1603
LeftUpLeg  -27.4772 -17.9507 16.7461
LeftLeg  35.3031 -2.43157 -1.47973
LeftFoot  -1.83517 1.75548 -20.7858
LeftToes  3.40148e-010 1.80944e-010 1.01921e-010
285
root  -0.523925 37.8642 12.4818 -175.855 13.0004 178.951
RightUpLeg  -21.9136 -15.513 -11.1269
RightLeg  32.3521 -4.12721 -3.05976
RightFoot  -4.90301 -1.10748 18.9751
RightToes  -1.39699e-009 0 -3.6325e-017
Spine  23.6177 2.44754 -3.22729
Spine1  8.8075 2.5211 -2.64525
HEad  -21.3555 8.02335 -6.86898
LeftShoulder1  0.885658 -1.30822 -11.2224
LeftArm  7.83822 2.23858 -50.7444
LeftForeArm  99.7781 -78.446 -112.725
LeftHand  -1.38298 -2.2192 21.1362
RightShoulder  1.02361 1.73181 12.5661
RightArm  -0.0711422 -0.611117 50.1103
RightForeArm  105.238 78.8484 111.589
RightHand  -1.13063 3.98575 -14.2013
LeftUpLeg  -25.8306 -16.87 15.952
LeftLeg  37.7084 -0.376142 0.0695268
LeftFoot  -4.32148 1.13662 -17.7598
LeftToes  3.40148e-010 1.80944e-010 1.01921e-010
286
root  -0.202325 37.4591 12.4168 -177.91 15.5175 178.501
RightUpLeg  -21.6867 -14.4474 -11.4179
RightLeg  35.1932 -3.06512 -2.58042
RightFoot  -7.86528 -0.607481 18.1502
RightToes  -1.39699e-009 0 -3.6325e-017
Spine  23.2902 2.05952 -4.4489
Spine1  9.0562 1.47207 -1.03846
HEad  -21.6807 11.1278 -8.68143
LeftShoulder1  0.906865 -1.16384 -12.3096
LeftArm  5.52123 2.41943 -48.9357
LeftForeArm  103.309 -78.0629 -116.71
LeftHand  -1.51105 -2.31991 22.738
RightShoulder  1.06135 1.71577 13.4318
RightArm  3.14303 -3.74254 49.7708
RightForeArm  109.351 78.5819 115.16
RightHand  -1.02621 3.91557 -13.0087
LeftUpLeg  -23.701 -14.8866 14.2948
LeftLeg  41.3806 1.09205 1.41667
LeftFoot  -8.65794 0.364975 -13.2219
LeftToes  3.40148e-010 1.80944e-010 1.01921e-010
287
root  -0.0165136 37.0695 12.3228 -179.832 17.8292 178.685
RightUpLeg  -21.4888 -13.8911 -11.3015
RightLeg  38.1191 -1.73908 -1.73818
RightFoot  -9.52733 -0.345966 17.6252
RightToes  -1.39699e-009 0 -3.6325e-017
Spine  22.013 1.31246 -4.45493
Spine1  11.4092 0.636144 -0.442203
HEad  -22.8031 14.297 -10.5473
LeftShoulder1  1.12156 -1.74853 -14.4401
LeftArm  2.58208 1.75275 -47.6041
LeftForeArm  102.385 -78.2851 -114.814
LeftHand  -1.70278 -2.5278 24.8694
RightShoulder  1.07345 1.62334 14.0949
RightArm  4.45064 -5.29247 49.0162
RightForeArm  109.541 78.5438 115.485
RightHand  -0.907419 3.63215 -11.9019
LeftUpLeg  -21.4962 -12.2549 13.3743
LeftLeg  44.617 1.49446 1.98101
LeftFoot  -12.816 -0.0788503 -11.1127
LeftToes  3.40148e-010 1.80944e-010 1.01921e-010
288
root  0.0301044 36.7868 12.1838 178.903 19.937 179.292
RightUpLeg  -21.3104 -14.0615 -10.8446
RightLeg  40.2209 -0.432079 -0.681374
RightFoot  -10.2976 -0.227918 17.1975
RightToes  -1.39699e-009 0 -3.6325e-017
Spine  20.119 0.409248 -3.86538
Spine1  14.2271 -0.172645 -0.220343
HEad  -23.7475 17.6437 -11.9891
LeftShoulder1  1.33509 -2.30523 -16.2532
LeftArm  0.252064 1.18999 -48.4146
LeftForeArm  95.0307 -78.9948 -105.929
LeftHand  -1.92402 -2.74951 27.2445
RightShoulder  1.11999 1.71852 14.6572
RightArm  5.13982 -6.11934 47.9896
RightForeArm  105.907 78.6679 113.264
RightHand  -0.93331 3.63231 -12.2157
LeftUpLeg  -19.4674 -9.90115 13.3117
LeftLeg  46.3843 1.19699 1.77084
LeftFoot  -14.8665 -0.304376 -12.7687
LeftToes  3.40148e-010 1.80944e-010 1.01921e-010
289
root  -0.0622808 36.693 12.0276 178.029 22.0904 179.61
RightUpLeg  -20.8184 -13.8992 -10.756
RightLeg  40.5507 0.659375 0.311083
RightFoot  -10.429 -0.207995 17.0647
RightToes  -1.39699e-009 0 -3.6325e-017
Spine  18.6957 -0.225396 -3.72324
Spine1  15.8959 -0.960761 0.373304
HEad  -23.6539 21.0601 -12.9259
LeftShoulder1  1.38683 -2.31484 -17.1696
LeftArm  -0.192803 1.66547 -51.3686
LeftForeArm  87.0576 -79.3682 -97.2135
LeftHand  -2.09976 -2.90204 29.0999
RightShoulder  1.16268 1.8219 15.0828
RightArm  5.7755 -7.32304 47.1878
RightForeArm  104.539 78.6971 112.531
RightHand  -1.09131 4.07651 -13.5909
LeftUpLeg  -17.4677 -8.57578 13.1423
LeftLeg  46.646 1.06464 1.63454
LeftFoot  -14.9892 -0.38673 -14.9089
LeftToes  3.40148e-010 1.80944e-010 1.01921e-010
290
root  -0.289176 36.8583 11.8809 177.381 24.4176 179.428
RightUpLeg  -19.9601 -12.6164 -11.1446
RightLeg  38.7821 1.33426 0.870497
RightFoot  -9.34911 -0.360653 16.9902
RightToes  -1.39699e-009 0 -3.6325e-017
Spine  17.8036 -0.429351 -4.33199
Spine1  16.596 -1.58539 1.36442
HEad  -22.8711 24.1747 -13.6783
LeftShoulder1  1.33864 -2.01544 -17.617
LeftArm  1.57624 3.0901 -54.9965
LeftForeArm  86.9299 -79.3652 -97.059
LeftHand  -2.21409 -3.06012 30.0575
RightShoulder  1.15193 1.73665 15.2478
RightArm  5.74156 -9.33043 47.185
RightForeArm  110.812 78.3713 117.07
RightHand  -1.23399 4.55708 -14.6142
LeftUpLeg  -15.418 -8.16685 12.4605
LeftLeg  45.524 1.17283 1.69697
LeftFoot  -14.6558 -0.340321 -14.7022
LeftToes  3.40148e-010 1.80944e-010 1.01921e-010
291
root  -0.647519 37.272 11.7448 177.161 26.7435 178.958
RightUpLeg  -19.0689 -10.6266 -11.7353
RightLeg  35.2766 1.405 0.813017
RightFoot  -6.62639 -0.759091 17.1836
RightToes  -1.39699e-009 0 -3.6325e-017
Spine  16.6232 -0.394515 -5.27732
Spine1  17.3429 -1.97205 2.22996
HEad  -22.1868 26.6695 -14.4439
LeftShoulder1  1.31959 -1.88793 -17.8542
LeftArm  5.15553 4.61471 -58.2495
LeftForeArm  93.1985 -79.231 -102.542
LeftHand  -2.312 -3.31488 30.4466
RightShoulder  1.11137 1.56019 15.2119
RightArm  4.65318 -11.9643 48.0996
RightForeArm  121.641 77.442 125.544
RightHand  -1.29537 4.83369 -14.9194
LeftUpLeg  -13.5006 -7.95987 11.4979
LeftLeg  42.9905 1.07888 1.48269
LeftFoot  -14.0585 -0.236892 -13.4215
LeftToes  3.40148e-010 1.80944e-010 1.01921e-010
292
root  -1.15456 37.8238 11.6173 177.358 28.7373 178.327
RightUpLeg  -18.3762 -8.89589 -12.5666
RightLeg  30.7563 0.941317 0.367796
RightFoot  -2.41442 -1.44184 18.0836
RightToes  -1.39699e-009 0 -3.6325e-017
Spine  15.1331 -0.400593 -6.20715
Spine1  18.1758 -2.31421 2.94775
HEad  -21.6922 28.561 -15.1021
LeftShoulder1  1.3313 -1.96357 -17.722
LeftArm  9.67788 5.76298 -61.1135
LeftForeArm  99.0788 -79.1597 -106.247
LeftHand  -2.44763 -3.74952 30.6879
RightShoulder  1.07073 1.39306 15.1257
RightArm  3.03316 -14.8894 49.7385
RightForeArm  130.766 75.9071 133.995
RightHand  -1.30324 4.96983 -14.8182
LeftUpLeg  -11.8662 -7.77349 10.3315
LeftLeg  39.4349 0.643663 0.951967
LeftFoot  -12.2128 -0.0276335 -13.8193
LeftToes  3.40148e-010 1.80944e-010 1.01921e-010
293
root  -1.81024 38.369 11.5029 177.646 30.2864 177.603
RightUpLeg  -17.8132 -7.88545 -13.7593
RightLeg  25.9513 0.547175 0.0591181
RightFoot  2.82208 -2.38924 19.2288
RightToes  -1.39699e-009 0 -3.6325e-017
Spine  14.1475 -0.553305 -7.08415
Spine1  18.3231 -2.84175 3.88286
HEad  -21.0364 30.1041 -15.5035
LeftShoulder1  1.29949 -1.93476 -17.2256
LeftArm  14.0665 6.80673 -63.6789
LeftForeArm  103.061 -79.1969 -107.715
LeftHand  -2.63943 -4.39707 30.896
RightShoulder  1.00975 1.15012 14.9422
RightArm  1.66123 -17.8549 51.9225
RightForeArm  137.623 73.8817 141.234
RightHand  -1.25209 4.99249 -14.2217
LeftUpLeg  -10.4486 -8.34836 8.91901
LeftLeg  35.788 -0.0602657 0.32046
LeftFoot  -9.36641 0.335125 -16.0043
LeftToes  3.40148e-010 1.80944e-010 1.01921e-010
294
root  -2.54773 38.7795 11.3917 177.963 31.7995 176.975
RightUpLeg  -17.4575 -7.73136 -15.0129
RightLeg  21.3523 1.13798 0.253167
RightFoot  8.05859 -3.44371 20.2722
RightToes  -1.39699e-009 0 -3.6325e-017
Spine  13.7664 -0.763256 -7.83631
Spine1  17.5278 -3.37561 4.71867
HEad  -20.1613 31.5346 -15.6665
LeftShoulder1  1.20134 -1.66386 -16.52
LeftArm  17.4947 8.07898 -65.7129
LeftForeArm  108.581 -79.0458 -111.372
LeftHand  -2.83 -5.06314 31.012
RightShoulder  0.918518 0.815489 14.4712
RightArm  0.925173 -20.6866 54.4096
RightForeArm  144.222 71.4128 147.511
RightHand  -1.14031 4.88105 -13.1232
LeftUpLeg  -9.15851 -9.88044 7.56502
LeftLeg  32.703 -1.27174 -0.521778
LeftFoot  -7.55136 0.634874 -17.8231
LeftToes  3.40148e-010 1.80944e-010 1.01921e-010
295
root  -3.26399 38.9401 11.2693 178.363 33.8842 176.403
RightUpLeg  -17.8235 -8.90532 -15.9136
RightLeg  17.6768 2.59825 0.670071
RightFoot  11.5267 -4.43403 22.0767
RightToes  -1.39699e-009 0 -3.6325e-017
Spine  13.241 -0.866284 -8.48489
Spine1  16.2896 -3.47256 4.6015
HEad  -19.239 32.9566 -15.7101
LeftShoulder1  1.06292 -1.22365 -15.6841
LeftArm  19.7211 9.37651 -66.9403
LeftForeArm  117.038 -78.42 -118.865
LeftHand  -2.9398 -5.4206 31.1437
RightShoulder  0.830538 0.542148 13.6638
RightArm  0.631834 -23.1249 56.8446
RightForeArm  150.1 68.7854 152.423
RightHand  -1.0323 4.75804 -12.0575
LeftUpLeg  -8.01425 -10.8331 6.449
LeftLeg  30.232 -2.93058 -1.49765
LeftFoot  -8.43601 0.51066 -17.9894
LeftToes  3.40148e-010 1.80944e-010 1.01921e-010
296
root  -3.93336 38.7935 11.1657 178.289 36.4927 175.507
RightUpLeg  -19.1407 -10.8822 -16.6515
RightLeg  16.2938 2.78872 0.666273
RightFoot  11.9783 -5.06115 24.6189
RightToes  -1.39699e-009 0 -3.6325e-017
Spine  12.506 -0.796853 -9.32213
Spine1  15.2332 -3.12241 3.55013
HEad  -18.5419 34.3172 -15.8757
LeftShoulder1  0.913945 -0.67157 -15.0381
LeftArm  21.029 9.97278 -66.9678
LeftForeArm  125.63 -77.2185 -127.666
LeftHand  -2.95905 -5.38764 31.4271
RightShoulder  0.762095 0.361117 12.7671
RightArm  0.37839 -24.5751 58.9614
RightForeArm  153.937 66.3408 155.84
RightHand  -0.982952 4.72086 -11.5382
LeftUpLeg  -7.04533 -9.70869 5.08929
LeftLeg  28.6338 -3.91997 -1.97377
LeftFoot  -11.6066 0.0325195 -16.9145
LeftToes  3.40148e-010 1.80944e-010 1.01921e-010
297
root  -4.63724 38.4185 11.1451 177.055 38.7538 174.379
RightUpLeg  -20.5726 -11.5563 -17.7411
RightLeg  18.0873 0.116173 -0.183215
RightFoot  9.93056 -4.84077 25.7303
RightToes  -1.39699e-009 0 -3.6325e-017
Spine  12.5373 -0.648124 -10.1988
Spine1  15.0088 -2.86405 2.76104
HEad  -18.6995 35.3664 -16.5067
LeftShoulder1  0.805051 -0.173049 -15.0433
LeftArm  21.6353 9.03192 -65.3767
LeftForeArm  131.354 -75.7547 -134.679
LeftHand  -2.95081 -5.2374 31.7609
RightShoulder  0.689758 0.0896325 12.1923
RightArm  0.0760573 -24.2823 60.6835
RightForeArm  155.893 64.182 158.197
RightHand  -0.993027 4.71197 -11.6616
LeftUpLeg  -6.3886 -7.38016 3.23938
LeftLeg  28.8568 -3.47528 -1.71324
LeftFoot  -15.4509 -0.45103 -15.1182
LeftToes  3.40148e-010 1.80944e-010 1.01921e-010
